<svg width="1080" height="1080" viewBox="0 0 1080 1080" fill="none" xmlns="http://www.w3.org/2000/svg">
<rect width="1080" height="1080" fill="#E5E5E5"/>
<path d="M294 396C306.15 396 316 405.85 316 418V662C316 674.15 306.15 684 294 684H117C104.85 684 95 674.15 95 662V418C95 405.85 104.85 396 117 396H294ZM141 453V627.466H219.904C209.968 623.082 191.85 605.372 198.863 569.603H210.261C210.261 596 244.5 627.466 269 627.466V559.082C268.969 559.078 246.5 555.993 246.5 546L269 535.411V453H141ZM210.261 480.178V521.384H196.232V480.178H210.261Z" fill="black"/>
<path d="M381.914 597.5V473.454H398.476V597.5H381.914ZM458.133 597.5L417.235 542.575H436.67L478.244 597.5H458.133ZM392.223 552.884V538.181H425.347C430.53 538.181 434.98 537.111 438.698 534.97C442.416 532.829 445.289 529.9 447.317 526.182C449.345 522.351 450.359 518.014 450.359 513.169C450.359 508.324 449.345 504.043 447.317 500.325C445.289 496.494 442.416 493.509 438.698 491.368C434.98 489.115 430.53 487.988 425.347 487.988H392.223V473.454H422.305C431.318 473.454 439.205 474.806 445.965 477.51C452.725 480.214 457.964 484.383 461.682 490.016C465.4 495.649 467.259 502.916 467.259 511.817V514.521C467.259 523.422 465.344 530.689 461.513 536.322C457.795 541.955 452.556 546.124 445.796 548.828C439.149 551.532 431.318 552.884 422.305 552.884H392.223ZM502.275 597.5V507.254H518.499V597.5H502.275ZM488.417 520.098V507.254H518.499V520.098H488.417ZM506.838 492.72C503.233 492.72 500.529 491.762 498.726 489.847C497.036 487.932 496.191 485.509 496.191 482.58C496.191 479.651 497.036 477.228 498.726 475.313C500.529 473.398 503.233 472.44 506.838 472.44C510.443 472.44 513.091 473.398 514.781 475.313C516.584 477.228 517.485 479.651 517.485 482.58C517.485 485.509 516.584 487.932 514.781 489.847C513.091 491.762 510.443 492.72 506.838 492.72ZM585.02 598.514C578.26 598.514 572.402 597.556 567.444 595.641C562.6 593.726 558.825 590.458 556.121 585.839C553.53 581.107 552.234 574.741 552.234 566.742V479.876H567.782V568.77C567.782 573.615 569.078 577.389 571.669 580.093C574.373 582.684 578.148 583.98 582.992 583.98H598.878V598.514H585.02ZM536.686 519.422V507.254H598.878V519.422H536.686ZM626.219 597.5V507.254H642.443V597.5H626.219ZM612.361 520.098V507.254H642.443V520.098H612.361ZM630.782 492.72C627.177 492.72 624.473 491.762 622.67 489.847C620.98 487.932 620.135 485.509 620.135 482.58C620.135 479.651 620.98 477.228 622.67 475.313C624.473 473.398 627.177 472.44 630.782 472.44C634.388 472.44 637.035 473.398 638.725 475.313C640.528 477.228 641.429 479.651 641.429 482.58C641.429 485.509 640.528 487.932 638.725 489.847C637.035 491.762 634.388 492.72 630.782 492.72ZM712.514 600.542C704.74 600.542 697.98 599.19 692.234 596.486C686.6 593.782 681.925 590.177 678.207 585.67C674.489 581.051 671.672 575.981 669.757 570.46C667.954 564.939 667.053 559.419 667.053 553.898V550.856C667.053 545.11 667.954 539.477 669.757 533.956C671.672 528.435 674.489 523.478 678.207 519.084C682.037 514.577 686.769 510.972 692.403 508.268C698.036 505.564 704.627 504.212 712.176 504.212C719.724 504.212 726.484 505.62 732.456 508.437C738.54 511.254 743.384 515.253 746.99 520.436C750.708 525.506 752.792 531.534 753.243 538.519H737.695C736.906 532.886 734.315 528.21 729.921 524.492C725.527 520.661 719.612 518.746 712.176 518.746C705.754 518.746 700.402 520.211 696.121 523.14C691.839 526.069 688.628 530.069 686.488 535.139C684.347 540.209 683.277 545.955 683.277 552.377C683.277 558.574 684.347 564.263 686.488 569.446C688.628 574.516 691.839 578.572 696.121 581.614C700.515 584.543 705.979 586.008 712.514 586.008C717.584 586.008 721.978 585.107 725.696 583.304C729.414 581.501 732.399 579.079 734.653 576.037C736.906 572.995 738.258 569.559 738.709 565.728H754.257C753.919 572.826 751.834 578.966 748.004 584.149C744.286 589.332 739.328 593.388 733.132 596.317C727.048 599.134 720.175 600.542 712.514 600.542ZM817.876 600.542C809.989 600.542 803.06 599.19 797.089 596.486C791.118 593.782 786.048 590.233 781.879 585.839C777.823 581.332 774.725 576.319 772.584 570.798C770.556 565.277 769.542 559.644 769.542 553.898V550.856C769.542 545.11 770.612 539.477 772.753 533.956C774.894 528.323 778.048 523.309 782.217 518.915C786.386 514.408 791.456 510.859 797.427 508.268C803.398 505.564 810.215 504.212 817.876 504.212C825.537 504.212 832.354 505.564 838.325 508.268C844.296 510.859 849.366 514.408 853.535 518.915C857.704 523.309 860.858 528.323 862.999 533.956C865.14 539.477 866.21 545.11 866.21 550.856V553.898C866.21 559.644 865.14 565.277 862.999 570.798C860.971 576.319 857.873 581.332 853.704 585.839C849.648 590.233 844.634 593.782 838.663 596.486C832.692 599.19 825.763 600.542 817.876 600.542ZM817.876 586.008C824.636 586.008 830.382 584.543 835.114 581.614C839.959 578.572 843.62 574.516 846.099 569.446C848.69 564.376 849.986 558.686 849.986 552.377C849.986 545.955 848.69 540.209 846.099 535.139C843.508 530.069 839.79 526.069 834.945 523.14C830.213 520.211 824.523 518.746 817.876 518.746C811.341 518.746 805.652 520.211 800.807 523.14C795.962 526.069 792.244 530.069 789.653 535.139C787.062 540.209 785.766 545.955 785.766 552.377C785.766 558.686 787.005 564.376 789.484 569.446C792.075 574.516 795.737 578.572 800.469 581.614C805.314 584.543 811.116 586.008 817.876 586.008ZM890.509 597.5V507.254H903.353V545.955H901.325C901.325 537.054 902.508 529.562 904.874 523.478C907.353 517.281 911.071 512.606 916.028 509.451C920.985 506.184 927.238 504.55 934.787 504.55H935.463C946.842 504.55 955.236 508.099 960.644 515.197C966.165 522.295 968.925 532.548 968.925 545.955V597.5H952.701V542.575C952.701 535.59 950.729 530.013 946.786 525.844C942.843 521.563 937.435 519.422 930.562 519.422C923.464 519.422 917.718 521.619 913.324 526.013C908.93 530.407 906.733 536.266 906.733 543.589V597.5H890.509Z" fill="black"/>
</svg>
